<?xml version="1.0" encoding="utf-8"?>
<!-- Generator: Adobe Illustrator 15.0.2, SVG Export Plug-In . SVG Version: 6.00 Build 0)  -->
<!DOCTYPE svg PUBLIC "-//W3C//DTD SVG 1.1//EN" "http://www.w3.org/Graphics/SVG/1.1/DTD/svg11.dtd">
<svg version="1.1" id="Calque_1" xmlns="http://www.w3.org/2000/svg" xmlns:xlink="http://www.w3.org/1999/xlink" x="0px" y="0px"
	 width="24px" height="24px" viewBox="0 0 24 24" enable-background="new 0 0 24 24" xml:space="preserve">
<circle fill="#1191BB" cx="12" cy="12" r="8"/>
<g id="place" opacity="0.25">
	<path d="M13,7.287c-2.229,0-4,1.771-4,3.999c0,2.972,4,7.427,4,7.427s4-4.455,4-7.427C17,9.058,15.228,7.287,13,7.287z M13,12.714
		c-0.8,0-1.429-0.628-1.429-1.428c0-0.8,0.629-1.429,1.429-1.429s1.428,0.629,1.428,1.429C14.428,12.085,13.8,12.714,13,12.714z"/>
</g>
<g id="place_1_">
	<path fill="#FFFFFE" d="M12,6.287c-2.229,0-4,1.771-4,3.999c0,2.972,4,7.427,4,7.427s4-4.455,4-7.427
		C16,8.058,14.228,6.287,12,6.287z M12,11.714c-0.8,0-1.429-0.628-1.429-1.428c0-0.8,0.629-1.429,1.429-1.429
		s1.428,0.629,1.428,1.429C13.428,11.085,12.8,11.714,12,11.714z"/>
</g>
</svg>
