<?xml version="1.0" encoding="utf-8"?>
<!-- Generator: Adobe Illustrator 15.0.2, SVG Export Plug-In . SVG Version: 6.00 Build 0)  -->
<!DOCTYPE svg PUBLIC "-//W3C//DTD SVG 1.1//EN" "http://www.w3.org/Graphics/SVG/1.1/DTD/svg11.dtd">
<svg version="1.1" id="Calque_1" xmlns="http://www.w3.org/2000/svg" xmlns:xlink="http://www.w3.org/1999/xlink" x="0px" y="0px"
	 width="170px" height="34px" viewBox="-34 0 170 34" enable-background="new -34 0 170 34" xml:space="preserve">
<g>
	<rect fill="#F01B57" width="34" height="34"/>
	
		<linearGradient id="SVGID_1_" gradientUnits="userSpaceOnUse" x1="1634.958" y1="5280.3174" x2="1634.958" y2="5312.3857" gradientTransform="matrix(1 0 0 1 -1617.959 -5279.3984)">
		<stop  offset="0" style="stop-color:#D31147"/>
		<stop  offset="1" style="stop-color:#F01B57"/>
	</linearGradient>
	<rect x="1" y="1" fill="url(#SVGID_1_)" width="32" height="32"/>
	<rect x="1" y="1" opacity="0.45" fill="#FFFFFE" enable-background="new    " width="32" height="1"/>
	<g opacity="0.6" enable-background="new    ">
		<path fill="#2D2D2D" d="M26.126,16.988L17.51,9.133c-0.13-0.119-0.314-0.146-0.509-0.125c-0.196-0.021-0.379,0.006-0.511,0.125
			l-8.615,7.855c-0.311,0.283-0.227,0.881,0.188,1.334c0.415,0.455,1.002,0.596,1.312,0.311L17,11.682l7.625,6.952
			c0.311,0.284,0.898,0.146,1.313-0.308C26.354,17.869,26.438,17.271,26.126,16.988z"/>
		<path fill="#2D2D2D" d="M17.307,12.843c-0.15-0.132-0.398-0.134-0.549-0.002l-5.74,4.991c-0.151,0.132-0.275,0.404-0.275,0.605
			v6.19c0,0.203,0.164,0.368,0.365,0.368h3.683c0.2,0,0.365-0.165,0.365-0.368v-4.771c0-0.205,0.164-0.367,0.365-0.367h2.954
			c0.203,0,0.367,0.162,0.367,0.367v4.771c0,0.203,0.164,0.368,0.365,0.368h3.646c0.201,0,0.361-0.165,0.361-0.368v-6.19
			c0-0.205-0.117-0.479-0.271-0.606L17.307,12.843z"/>
		<path fill="#2D2D2D" d="M22.943,13.377c0.146,0.135,0.271,0.082,0.271-0.119v-2.881c0-0.2-0.164-0.365-0.364-0.365H20.7
			c-0.203,0-0.368,0.164-0.368,0.365v0.255c0,0.201,0.12,0.475,0.271,0.61L22.943,13.377z"/>
	</g>
</g>
<g>
	<rect x="-34" fill="#F01B57" width="34" height="34"/>
	
		<linearGradient id="SVGID_2_" gradientUnits="userSpaceOnUse" x1="1600.958" y1="5280.3174" x2="1600.958" y2="5312.3857" gradientTransform="matrix(1 0 0 1 -1617.959 -5279.3984)">
		<stop  offset="0" style="stop-color:#D31147"/>
		<stop  offset="1" style="stop-color:#F01B57"/>
	</linearGradient>
	<rect x="-33" y="1" fill="url(#SVGID_2_)" width="32" height="32"/>
	<rect x="-33" y="1" opacity="0.45" fill="#FFFFFE" enable-background="new    " width="32" height="1"/>
	<g opacity="0.6" enable-background="new    ">
		<path fill="#2D2D2D" d="M-7.874,16.988l-8.616-7.855c-0.13-0.119-0.314-0.146-0.509-0.125c-0.196-0.021-0.379,0.006-0.511,0.125
			l-8.615,7.855c-0.311,0.283-0.227,0.881,0.188,1.334c0.415,0.455,1.002,0.596,1.312,0.311L-17,11.682l7.625,6.952
			c0.311,0.284,0.898,0.146,1.313-0.308C-7.646,17.869-7.562,17.271-7.874,16.988z"/>
		<path fill="#2D2D2D" d="M-16.693,12.843c-0.15-0.132-0.398-0.134-0.549-0.002l-5.74,4.991c-0.151,0.132-0.275,0.404-0.275,0.605
			v6.19c0,0.203,0.164,0.368,0.365,0.368h3.683c0.2,0,0.365-0.165,0.365-0.368v-4.771c0-0.205,0.164-0.367,0.365-0.367h2.954
			c0.203,0,0.367,0.162,0.367,0.367v4.771c0,0.203,0.164,0.368,0.365,0.368h3.646c0.201,0,0.361-0.165,0.361-0.368v-6.19
			c0-0.205-0.117-0.479-0.271-0.606L-16.693,12.843z"/>
		<path fill="#2D2D2D" d="M-11.057,13.377c0.146,0.135,0.271,0.082,0.271-0.119v-2.881c0-0.2-0.164-0.365-0.364-0.365h-2.15
			c-0.203,0-0.368,0.164-0.368,0.365v0.255c0,0.201,0.12,0.475,0.271,0.61L-11.057,13.377z"/>
	</g>
</g>
<g>
	<rect x="34" fill="#F01B57" width="34" height="34"/>
	
		<linearGradient id="SVGID_3_" gradientUnits="userSpaceOnUse" x1="1399.3584" y1="1132.6436" x2="1399.3584" y2="1100.5752" gradientTransform="matrix(1 0 0 -1 -1348.3594 1133.5586)">
		<stop  offset="0" style="stop-color:#D31147"/>
		<stop  offset="1" style="stop-color:#F01B57"/>
	</linearGradient>
	<rect x="35" y="1" fill="url(#SVGID_3_)" width="32" height="32"/>
	<rect x="35" y="1" opacity="0.45" fill="#FFFFFE" enable-background="new    " width="32" height="1"/>
	<rect x="35" y="1" opacity="0.22" fill="#FFFFFE" enable-background="new    " width="32" height="32"/>
	<g opacity="0.6">
		<path fill="#0A7039" d="M60.125,16.988L51.51,9.133c-0.13-0.119-0.314-0.146-0.509-0.125c-0.196-0.021-0.379,0.006-0.511,0.125
			l-8.615,7.855c-0.311,0.283-0.227,0.881,0.188,1.334c0.415,0.455,1.002,0.596,1.312,0.311L51,11.682l7.625,6.952
			c0.311,0.284,0.898,0.146,1.313-0.308C60.354,17.869,60.438,17.271,60.125,16.988z"/>
		<path fill="#0A7039" d="M51.307,12.843c-0.15-0.132-0.398-0.134-0.549-0.002l-5.74,4.991c-0.151,0.132-0.275,0.404-0.275,0.605
			v6.192c0,0.203,0.164,0.368,0.365,0.368h3.683c0.2,0,0.365-0.165,0.365-0.368v-4.771c0-0.205,0.164-0.368,0.365-0.368h2.954
			c0.203,0,0.367,0.163,0.367,0.368v4.771c0,0.203,0.164,0.368,0.365,0.368h3.646c0.201,0,0.363-0.165,0.363-0.368v-6.192
			c0-0.205-0.119-0.477-0.273-0.606L51.307,12.843z"/>
		<path fill="#0A7039" d="M56.944,13.377c0.146,0.135,0.27,0.082,0.27-0.119v-2.881c0-0.2-0.164-0.365-0.363-0.365H54.7
			c-0.203,0-0.367,0.164-0.367,0.365v0.255c0,0.201,0.119,0.475,0.271,0.61L56.944,13.377z"/>
	</g>
</g>
<g>
	<rect x="68" fill="#F01B57" width="34" height="34"/>
	
		<linearGradient id="SVGID_4_" gradientUnits="userSpaceOnUse" x1="1433.3584" y1="1132.6436" x2="1433.3584" y2="1100.5752" gradientTransform="matrix(1 0 0 -1 -1348.3594 1133.5586)">
		<stop  offset="0" style="stop-color:#D31147"/>
		<stop  offset="1" style="stop-color:#F01B57"/>
	</linearGradient>
	<rect x="69" y="1" fill="url(#SVGID_4_)" width="32" height="32"/>
	<rect x="69" y="1" opacity="0.45" fill="#FFFFFE" enable-background="new    " width="32" height="1"/>
	<rect x="69" y="1" opacity="0.22" fill="#FFFFFE" enable-background="new    " width="32" height="32"/>
	<g opacity="0.6">
		<path fill="#0A7039" d="M94.125,16.988L85.51,9.133c-0.13-0.119-0.314-0.146-0.509-0.125c-0.196-0.021-0.379,0.006-0.511,0.125
			l-8.615,7.855c-0.311,0.283-0.227,0.881,0.188,1.334c0.416,0.455,1.002,0.596,1.313,0.311L85,11.682l7.625,6.952
			c0.311,0.284,0.898,0.146,1.313-0.308C94.354,17.869,94.438,17.271,94.125,16.988z"/>
		<path fill="#0A7039" d="M85.307,12.843c-0.148-0.132-0.396-0.134-0.549-0.002l-5.74,4.991c-0.149,0.132-0.273,0.404-0.273,0.605
			v6.192c0,0.203,0.164,0.368,0.363,0.368h3.685c0.2,0,0.365-0.165,0.365-0.368v-4.771c0-0.205,0.163-0.368,0.364-0.368h2.953
			c0.203,0,0.367,0.163,0.367,0.368v4.771c0,0.203,0.164,0.368,0.365,0.368h3.646c0.201,0,0.362-0.165,0.362-0.368v-6.192
			c0-0.205-0.118-0.477-0.272-0.606L85.307,12.843z"/>
		<path fill="#0A7039" d="M90.943,13.377c0.146,0.135,0.27,0.082,0.27-0.119v-2.881c0-0.2-0.164-0.365-0.363-0.365H88.7
			c-0.203,0-0.367,0.164-0.367,0.365v0.255c0,0.201,0.119,0.475,0.271,0.61L90.943,13.377z"/>
	</g>
</g>
<g>
	<rect x="102" fill="#F01B57" width="34" height="34"/>
	
		<linearGradient id="SVGID_5_" gradientUnits="userSpaceOnUse" x1="1467.3584" y1="1132.6436" x2="1467.3584" y2="1100.5752" gradientTransform="matrix(1 0 0 -1 -1348.3594 1133.5586)">
		<stop  offset="0" style="stop-color:#D31147"/>
		<stop  offset="1" style="stop-color:#F01B57"/>
	</linearGradient>
	<rect x="103" y="1" fill="url(#SVGID_5_)" width="32" height="32"/>
	<rect x="103" y="1" opacity="0.45" fill="#FFFFFE" enable-background="new    " width="32" height="1"/>
	<rect x="103" y="1" opacity="0.22" fill="#FFFFFE" enable-background="new    " width="32" height="32"/>
	<g opacity="0.6">
		<path fill="#0A7039" d="M128.125,16.988l-8.615-7.855c-0.13-0.119-0.314-0.146-0.509-0.125c-0.196-0.021-0.379,0.006-0.511,0.125
			l-8.615,7.855c-0.311,0.283-0.227,0.881,0.188,1.334c0.416,0.455,1.002,0.596,1.313,0.311L119,11.682l7.625,6.952
			c0.311,0.284,0.898,0.146,1.313-0.308C128.354,17.869,128.438,17.271,128.125,16.988z"/>
		<path fill="#0A7039" d="M119.307,12.843c-0.148-0.132-0.396-0.134-0.549-0.002l-5.74,4.991c-0.149,0.132-0.273,0.404-0.273,0.605
			v6.192c0,0.203,0.164,0.368,0.363,0.368h3.685c0.2,0,0.365-0.165,0.365-0.368v-4.771c0-0.205,0.163-0.368,0.364-0.368h2.953
			c0.203,0,0.367,0.163,0.367,0.368v4.771c0,0.203,0.164,0.368,0.365,0.368h3.646c0.201,0,0.362-0.165,0.362-0.368v-6.192
			c0-0.205-0.118-0.477-0.272-0.606L119.307,12.843z"/>
		<path fill="#0A7039" d="M124.943,13.377c0.146,0.135,0.27,0.082,0.27-0.119v-2.881c0-0.2-0.164-0.365-0.363-0.365H122.7
			c-0.203,0-0.367,0.164-0.367,0.365v0.255c0,0.201,0.119,0.475,0.271,0.61L124.943,13.377z"/>
	</g>
</g>
</svg>
