<?xml version="1.0" encoding="utf-8"?>
<!-- Generator: Adobe Illustrator 15.0.2, SVG Export Plug-In . SVG Version: 6.00 Build 0)  -->
<!DOCTYPE svg PUBLIC "-//W3C//DTD SVG 1.1//EN" "http://www.w3.org/Graphics/SVG/1.1/DTD/svg11.dtd">
<svg version="1.1" id="Calque_1" xmlns="http://www.w3.org/2000/svg" xmlns:xlink="http://www.w3.org/1999/xlink" x="0px" y="0px"
	 width="24px" height="24px" viewBox="28 0 24 24" enable-background="new 28 0 24 24" xml:space="preserve">
<g>
	<circle fill="#1191BB" cx="40" cy="12" r="8"/>
	<polygon opacity="0.25" enable-background="new    " points="47,13 44.207,10.452 44.207,12.621 41.378,12.621 41.378,9.793 
		43.548,9.793 41,7.001 38.452,9.793 40.677,9.793 40.677,12.621 37.793,12.621 37.793,10.452 35,13 37.793,15.549 37.793,13.322 
		40.677,13.322 40.677,16.206 38.452,16.206 41,18.999 43.548,16.206 41.378,16.206 41.378,13.322 44.207,13.322 44.207,15.549 	"/>
	<polygon fill="#FFFFFF" points="46,12 43.207,9.452 43.207,11.622 40.378,11.622 40.378,8.793 42.548,8.793 40,6.001 37.452,8.793 
		39.677,8.793 39.677,11.622 36.793,11.622 36.793,9.452 34,12 36.793,14.549 36.793,12.322 39.677,12.322 39.677,15.206 
		37.452,15.206 40,17.999 42.548,15.206 40.378,15.206 40.378,12.322 43.207,12.322 43.207,14.549 	"/>
</g>
</svg>
