<?xml version="1.0" encoding="utf-8"?>
<!-- Generator: Adobe Illustrator 15.0.0, SVG Export Plug-In . SVG Version: 6.00 Build 0)  -->
<!DOCTYPE svg PUBLIC "-//W3C//DTD SVG 1.1//EN" "http://www.w3.org/Graphics/SVG/1.1/DTD/svg11.dtd">
<svg version="1.1" id="Calque_1" xmlns="http://www.w3.org/2000/svg" xmlns:xlink="http://www.w3.org/1999/xlink" x="0px" y="0px"
	 width="20px" height="24px" viewBox="0 0 20 24" enable-background="new 0 0 20 24" xml:space="preserve">
<g>
	
		<linearGradient id="SVGID_1_" gradientUnits="userSpaceOnUse" x1="432.3945" y1="479.0605" x2="432.3945" y2="456.0625" gradientTransform="matrix(-1 0 0 -1 442.5605 479.5605)">
		<stop  offset="0" style="stop-color:#EEEBE8"/>
		<stop  offset="1" style="stop-color:#E8C6B0"/>
	</linearGradient>
	<path fill="url(#SVGID_1_)" d="M3.2,0.5h13.931c1.398,0,2.534,1.137,2.534,2.534v17.933c0,1.396-1.136,2.531-2.534,2.531H3.2
		c-1.397,0-2.534-1.137-2.534-2.531V3.034C0.666,1.637,1.803,0.5,3.2,0.5L3.2,0.5z"/>
	<path fill="#2AEDFF" d="M3.201,24c-1.678,0-3.035-1.357-3.035-3.034V3.035C0.166,1.357,1.523,0,3.201,0h13.93
		c1.676,0,3.035,1.357,3.035,3.035v17.931c0,1.678-1.359,3.034-3.035,3.034H3.201 M3.201,23h13.93c1.122,0,2.035-0.912,2.035-2.034
		V3.035C19.166,1.913,18.253,1,17.131,1H3.201C2.079,1,1.166,1.913,1.166,3.035v17.931C1.166,22.088,2.079,23,3.201,23L3.201,23z"/>
</g>
</svg>
