<?xml version="1.0" encoding="utf-8"?>
<!-- Generator: Adobe Illustrator 15.0.2, SVG Export Plug-In . SVG Version: 6.00 Build 0)  -->
<!DOCTYPE svg PUBLIC "-//W3C//DTD SVG 1.1//EN" "http://www.w3.org/Graphics/SVG/1.1/DTD/svg11.dtd">
<svg version="1.1" id="Calque_1" xmlns="http://www.w3.org/2000/svg" xmlns:xlink="http://www.w3.org/1999/xlink" x="0px" y="0px"
	 width="24px" height="24px" viewBox="28 0 24 24" enable-background="new 28 0 24 24" xml:space="preserve">
<g>
	<circle fill="#1191BB" cx="40" cy="12" r="8"/>
	<path opacity="0.25" enable-background="new    " d="M45.992,11.659c0-1.687-1.145-3.214-2.85-3.635
		c-0.301-0.074-0.604-0.11-0.899-0.11c-1.688-0.001-3.213,1.145-3.638,2.853c-0.074,0.3-0.108,0.601-0.108,0.898
		c0,0.67,0.186,1.312,0.512,1.873L36.2,16.372c-0.371,0.374-0.368,0.981,0.007,1.353c0.186,0.186,0.43,0.277,0.673,0.277
		c0.246,0,0.492-0.096,0.678-0.284l2.801-2.825c0.304,0.174,0.63,0.324,0.988,0.412c0.301,0.072,0.601,0.108,0.898,0.108
		c1.688,0,3.215-1.144,3.637-2.853l-0.556-0.138l0.556,0.138C45.956,12.258,45.992,11.956,45.992,11.659z M44.77,12.285
		c-0.291,1.188-1.355,1.979-2.524,1.979c-0.206,0-0.415-0.021-0.625-0.074c-0.313-0.076-0.599-0.211-0.851-0.387
		c-0.266-0.183-0.486-0.414-0.666-0.675c-0.291-0.427-0.462-0.932-0.462-1.462c0-0.207,0.024-0.415,0.076-0.623
		c0.292-1.186,1.356-1.981,2.523-1.981c0.205,0,0.413,0.023,0.624,0.077c1.186,0.29,1.979,1.354,1.979,2.521
		C44.844,11.865,44.82,12.073,44.77,12.285z"/>
	<path fill="#FFFFFE" d="M45.079,10.746c0-1.687-1.144-3.214-2.851-3.635c-0.301-0.074-0.604-0.109-0.899-0.109
		C39.642,7,38.116,8.146,37.691,9.854c-0.074,0.3-0.109,0.602-0.109,0.898c0,0.67,0.187,1.311,0.512,1.871l-2.808,2.834
		c-0.372,0.376-0.368,0.98,0.006,1.352c0.186,0.186,0.43,0.277,0.673,0.277c0.247,0,0.492-0.096,0.679-0.283l2.8-2.826
		c0.304,0.178,0.63,0.324,0.989,0.412c0.301,0.072,0.601,0.108,0.899,0.108c1.686,0,3.215-1.144,3.637-2.85l-0.556-0.138
		l0.556,0.137C45.045,11.346,45.079,11.044,45.079,10.746z M43.855,11.372c-0.29,1.187-1.355,1.979-2.523,1.979
		c-0.207,0-0.416-0.023-0.625-0.076c-0.315-0.075-0.6-0.211-0.852-0.387c-0.265-0.183-0.486-0.414-0.665-0.676
		c-0.291-0.426-0.462-0.931-0.462-1.461c0-0.207,0.024-0.415,0.076-0.623c0.292-1.186,1.356-1.981,2.523-1.981
		c0.205,0,0.413,0.024,0.624,0.077c1.186,0.291,1.979,1.355,1.979,2.522C43.932,10.952,43.908,11.161,43.855,11.372z"/>
</g>
</svg>
