<?xml version="1.0" encoding="utf-8"?>
<!-- Generator: Adobe Illustrator 15.0.2, SVG Export Plug-In . SVG Version: 6.00 Build 0)  -->
<!DOCTYPE svg PUBLIC "-//W3C//DTD SVG 1.1//EN" "http://www.w3.org/Graphics/SVG/1.1/DTD/svg11.dtd">
<svg version="1.1" id="Calque_1" xmlns="http://www.w3.org/2000/svg" xmlns:xlink="http://www.w3.org/1999/xlink" x="0px" y="0px"
	 width="24px" height="24px" viewBox="28 0 24 24" enable-background="new 28 0 24 24" xml:space="preserve">
<g>
	<circle fill="#1191BB" cx="40" cy="12" r="8"/>
	<path opacity="0.25" enable-background="new    " d="M40.829,6.945c-0.415,0-0.753,0.288-0.83,0.679h-0.021l-2.726,3.069h1.364
		l1.883-2.12c0.103,0.042,0.214,0.074,0.33,0.074c0.118,0,0.229-0.032,0.332-0.074l1.884,2.12h1.361L41.68,7.625h-0.021
		C41.586,7.233,41.246,6.945,40.829,6.945L40.829,6.945z M35.89,10.919c-0.378,0-0.681,0.305-0.681,0.682v0.341
		c0,0.358,0.275,0.644,0.629,0.671l1.074,3.76c0.34,0.682,0.681,0.682,1.021,0.682h6.133c0.341,0,0.682,0,1.021-0.682l1.076-3.76
		c0.351-0.027,0.627-0.313,0.627-0.671v-0.341c0-0.377-0.304-0.682-0.683-0.682H35.89L35.89,10.919z M37.807,12.625h0.169
		c0.378,0,0.75,0.283,0.83,0.637l0.479,2.119c0.08,0.357-0.165,0.651-0.542,0.651h-0.171c-0.377,0-0.75-0.294-0.831-0.651
		l-0.478-2.119C37.184,12.908,37.428,12.625,37.807,12.625L37.807,12.625z M41,12.625c0.378,0,0.682,0.303,0.682,0.68v2.047
		c0,0.375-0.303,0.685-0.682,0.685c-0.377,0-0.682-0.31-0.682-0.685v-2.047C40.318,12.928,40.624,12.625,41,12.625L41,12.625z
		 M44.023,12.625h0.172c0.375,0,0.621,0.283,0.541,0.637l-0.479,2.119c-0.08,0.357-0.452,0.651-0.83,0.651h-0.172
		c-0.375,0-0.619-0.294-0.541-0.651l0.479-2.119C43.271,12.908,43.646,12.625,44.023,12.625L44.023,12.625z"/>
	<path fill="#FFFFFE" d="M39.829,5.945c-0.415,0-0.753,0.288-0.83,0.679h-0.021l-2.726,3.069h1.364l1.883-2.12
		c0.103,0.042,0.214,0.074,0.33,0.074c0.118,0,0.229-0.032,0.332-0.074l1.884,2.12h1.361L40.68,6.625h-0.021
		C40.586,6.233,40.246,5.945,39.829,5.945L39.829,5.945z M34.89,9.919c-0.378,0-0.681,0.305-0.681,0.682v0.341
		c0,0.359,0.275,0.644,0.629,0.671l1.074,3.76c0.34,0.682,0.681,0.682,1.021,0.682h6.133c0.341,0,0.682,0,1.021-0.682l1.076-3.76
		c0.351-0.027,0.627-0.312,0.627-0.671v-0.341c0-0.377-0.304-0.682-0.683-0.682H34.89L34.89,9.919z M36.807,11.625h0.169
		c0.378,0,0.75,0.283,0.83,0.637l0.479,2.119c0.08,0.357-0.165,0.651-0.542,0.651h-0.171c-0.377,0-0.75-0.294-0.831-0.651
		l-0.478-2.119C36.184,11.908,36.428,11.625,36.807,11.625L36.807,11.625z M40,11.625c0.378,0,0.682,0.303,0.682,0.68v2.046
		c0,0.375-0.303,0.683-0.682,0.683c-0.377,0-0.682-0.308-0.682-0.683v-2.046C39.318,11.928,39.624,11.625,40,11.625L40,11.625z
		 M43.023,11.625h0.172c0.375,0,0.621,0.283,0.541,0.637l-0.479,2.119c-0.08,0.357-0.452,0.651-0.83,0.651h-0.172
		c-0.375,0-0.619-0.294-0.541-0.651l0.479-2.119C42.271,11.908,42.646,11.625,43.023,11.625L43.023,11.625z"/>
</g>
</svg>
