<?xml version="1.0" encoding="utf-8"?>
<!-- Generator: Adobe Illustrator 15.0.2, SVG Export Plug-In . SVG Version: 6.00 Build 0)  -->
<!DOCTYPE svg PUBLIC "-//W3C//DTD SVG 1.1//EN" "http://www.w3.org/Graphics/SVG/1.1/DTD/svg11.dtd">
<svg version="1.1" id="Calque_1" xmlns="http://www.w3.org/2000/svg" xmlns:xlink="http://www.w3.org/1999/xlink" x="0px" y="0px"
	 width="24px" height="24px" viewBox="28 0 24 24" enable-background="new 28 0 24 24" xml:space="preserve">
<g>
	<g>
		<circle fill="#1191BB" cx="40" cy="12" r="8"/>
	</g>
	<path opacity="0.25" enable-background="new    " d="M42.907,13.827c-0.603,0-1.144,0.254-1.526,0.657l-2.257-1.133
		c0.02-0.115,0.031-0.236,0.031-0.357c0-0.184-0.023-0.36-0.068-0.529l2.378-1.457c0.287,0.222,0.645,0.354,1.035,0.354
		c0.934,0,1.689-0.757,1.689-1.69s-0.756-1.69-1.689-1.69s-1.689,0.756-1.689,1.69c0,0.108,0.01,0.212,0.029,0.315l-2.379,1.458
		c-0.368-0.328-0.853-0.528-1.384-0.528C35.93,10.916,35,11.846,35,12.994c0,1.146,0.93,2.076,2.078,2.076
		c0.594,0,1.129-0.25,1.508-0.648l2.256,1.135c-0.021,0.118-0.033,0.242-0.033,0.367c0,1.156,0.939,2.094,2.096,2.094
		s2.095-0.938,2.095-2.094C45,14.768,44.064,13.827,42.907,13.827z"/>
	<path fill="#FFFFFF" d="M41.907,12.827c-0.603,0-1.144,0.254-1.526,0.657l-2.257-1.133c0.02-0.116,0.031-0.236,0.031-0.358
		c0-0.183-0.023-0.36-0.068-0.529l2.378-1.457c0.287,0.222,0.645,0.354,1.035,0.354c0.934,0,1.689-0.757,1.689-1.69
		s-0.756-1.69-1.689-1.69s-1.69,0.756-1.69,1.69c0,0.108,0.011,0.212,0.03,0.315l-2.379,1.458c-0.368-0.328-0.853-0.528-1.384-0.528
		c-1.147,0-2.077,0.93-2.077,2.078c0,1.148,0.93,2.078,2.078,2.078c0.594,0,1.129-0.25,1.508-0.649l2.256,1.136
		c-0.021,0.117-0.033,0.241-0.033,0.366c0,1.156,0.939,2.095,2.095,2.095s2.095-0.938,2.095-2.095
		C44,13.768,43.064,12.827,41.907,12.827z"/>
</g>
</svg>
