<?xml version="1.0" encoding="utf-8"?>
<!-- Generator: Adobe Illustrator 15.0.2, SVG Export Plug-In . SVG Version: 6.00 Build 0)  -->
<!DOCTYPE svg PUBLIC "-//W3C//DTD SVG 1.1//EN" "http://www.w3.org/Graphics/SVG/1.1/DTD/svg11.dtd">
<svg version="1.1" id="Calque_1" xmlns="http://www.w3.org/2000/svg" xmlns:xlink="http://www.w3.org/1999/xlink" x="0px" y="0px"
	 width="24px" height="24px" viewBox="28 0 24 24" enable-background="new 28 0 24 24" xml:space="preserve">
<g>
	<circle fill="#1191BB" cx="40" cy="12" r="8"/>
	<g opacity="0.25" enable-background="new    ">
		<polygon points="38.031,8.016 38.031,12.922 43.969,12.922 43.969,9.046 42.969,9.046 42.969,8.016 		"/>
		<polygon points="44.906,10.983 44.906,10.983 46.031,11.983 46.031,16.922 43.969,16.922 43.969,17.983 38.031,17.983 
			38.031,16.922 35.969,16.922 35.969,11.983 36.906,10.983 36.906,10.983 36.906,13.797 44.906,13.797 		"/>
	</g>
	<g>
		<polygon fill="#FFFFFF" points="37.031,7.016 37.031,11.921 42.969,11.921 42.969,8.046 41.969,8.046 41.969,7.016 		"/>
		<polygon fill="#FFFFFF" points="43.906,9.983 43.906,9.983 45.031,10.983 45.031,15.922 42.969,15.922 42.969,16.983 
			37.031,16.983 37.031,15.922 34.969,15.922 34.969,10.983 35.906,9.983 35.906,9.983 35.906,12.797 43.906,12.797 		"/>
	</g>
</g>
</svg>
