<?xml version="1.0" encoding="utf-8"?>
<!-- Generator: Adobe Illustrator 15.0.2, SVG Export Plug-In . SVG Version: 6.00 Build 0)  -->
<!DOCTYPE svg PUBLIC "-//W3C//DTD SVG 1.1//EN" "http://www.w3.org/Graphics/SVG/1.1/DTD/svg11.dtd">
<svg version="1.1" id="Calque_1" xmlns="http://www.w3.org/2000/svg" xmlns:xlink="http://www.w3.org/1999/xlink" x="0px" y="0px"
	 width="24px" height="24px" viewBox="28 0 24 24" enable-background="new 28 0 24 24" xml:space="preserve">
<g>
	<circle fill="#1191BB" cx="40" cy="12" r="8"/>
	<g opacity="0.25">
		<path d="M43.148,8.834c-0.142,0-0.278,0.861-0.414,0.889l-1.69,2.756l1.656,0.936l-0.572,3.202
			c0.345-0.322,0.726-0.67,1.006-0.898c1.378-1.13,2.802-2.295,2.802-4.101C45.938,9.979,44.791,8.834,43.148,8.834z"/>
		<path d="M38.855,13.178l1.679-2.73c-0.461-0.389-1.097-1.612-1.811-1.612c-1.641,0-2.788,1.145-2.788,2.782
			c0,1.806,1.423,2.971,2.8,4.1c0.465,0.382,1.199,1.079,1.583,1.449l0.512-2.871L38.855,13.178z"/>
	</g>
	<g>
		<path fill="#FFFFFE" d="M42.148,7.834c-0.142,0-0.278,0.861-0.414,0.889l-1.69,2.756l1.656,0.936l-0.572,3.202
			c0.345-0.322,0.726-0.67,1.006-0.898c1.378-1.13,2.802-2.295,2.802-4.101C44.938,8.979,43.791,7.834,42.148,7.834z"/>
		<path fill="#FFFFFE" d="M37.855,12.177l1.679-2.729c-0.461-0.389-1.097-1.612-1.811-1.612c-1.641,0-2.788,1.145-2.788,2.782
			c0,1.806,1.423,2.971,2.8,4.1c0.465,0.382,1.199,1.079,1.583,1.449l0.512-2.871L37.855,12.177z"/>
	</g>
</g>
</svg>
