<?xml version="1.0" encoding="utf-8"?>
<!-- Generator: Adobe Illustrator 15.0.2, SVG Export Plug-In . SVG Version: 6.00 Build 0)  -->
<!DOCTYPE svg PUBLIC "-//W3C//DTD SVG 1.1//EN" "http://www.w3.org/Graphics/SVG/1.1/DTD/svg11.dtd">
<svg version="1.1" id="Calque_1" xmlns="http://www.w3.org/2000/svg" xmlns:xlink="http://www.w3.org/1999/xlink" x="0px" y="0px"
	 width="24px" height="24px" viewBox="28 0 24 24" enable-background="new 28 0 24 24" xml:space="preserve">
<circle fill="#1191BB" cx="40" cy="12" r="8"/>
<g>
	<polygon opacity="0.25" enable-background="new    " points="47,12.5 44.207,9.952 44.207,12.121 41.378,12.121 41.378,9.292 
		43.548,9.292 41,6.5 38.452,9.292 40.677,9.292 40.677,12.121 37.793,12.121 37.793,9.952 35,12.5 37.793,15.049 37.793,12.822 
		40.677,12.822 40.677,15.705 38.452,15.705 41,18.498 43.548,15.705 41.378,15.705 41.378,12.822 44.207,12.822 44.207,15.049 	"/>
	<polygon fill="#FFFFFF" points="46,11.5 43.207,8.952 43.207,11.122 40.378,11.122 40.378,8.292 42.548,8.292 40,5.5 37.452,8.292 
		39.677,8.292 39.677,11.122 36.793,11.122 36.793,8.952 34,11.5 36.793,14.049 36.793,11.821 39.677,11.821 39.677,14.705 
		37.452,14.705 40,17.498 42.548,14.705 40.378,14.705 40.378,11.821 43.207,11.821 43.207,14.049 	"/>
</g>
</svg>
