<?xml version="1.0" encoding="utf-8"?>
<!-- Generator: Adobe Illustrator 15.0.2, SVG Export Plug-In . SVG Version: 6.00 Build 0)  -->
<!DOCTYPE svg PUBLIC "-//W3C//DTD SVG 1.1//EN" "http://www.w3.org/Graphics/SVG/1.1/DTD/svg11.dtd">
<svg version="1.1" id="Calque_1" xmlns="http://www.w3.org/2000/svg" xmlns:xlink="http://www.w3.org/1999/xlink" x="0px" y="0px"
	 width="24px" height="24px" viewBox="0 0 24 24" enable-background="new 0 0 24 24" xml:space="preserve">
<circle fill="#1191BB" cx="12" cy="12" r="8"/>
<g opacity="0.25">
	<path d="M15.746,8.416H14.72l-0.011,3.125c0,0.004-0.007,0.009-0.011,0.009H9.777c-0.006,0-0.009-0.005-0.009-0.009V8.416H8.409
		v9.078H17.5v-7.355L15.746,8.416z M16.438,17.008H9.591v-4.682h6.848V17.008z"/>
	<path d="M10.212,13.572h5.562v0.555h-5.562V13.572z M10.212,15.199h0.068h5.418h0.076v0.554h-5.563V15.199z"/>
	<rect x="12.098" y="8.763" width="1.961" height="2.308"/>
	<rect x="10.281" y="13.584" width="5.418" height="0.539"/>
	<path d="M15.775,13.572h-5.563v0.555h5.562L15.775,13.572L15.775,13.572z M15.699,14.123h-5.418v-0.539h5.418V14.123z"/>
	<rect x="10.281" y="15.199" width="5.418" height="0.539"/>
	<polygon points="15.775,15.199 15.699,15.199 15.699,15.738 10.281,15.738 10.281,15.199 10.212,15.199 10.212,15.753 
		15.775,15.753 	"/>
</g>
<g>
	<path fill="#FFFFFF" d="M14.837,7.507h-1.026L13.8,10.632c0,0.004-0.007,0.009-0.011,0.009H8.868c-0.006,0-0.009-0.004-0.009-0.009
		V7.507H7.5v9.078h9.091V9.229L14.837,7.507z M15.529,16.099H8.682v-4.681h6.848V16.099z"/>
	<path fill="#FFFFFF" d="M9.303,12.663h5.562v0.555H9.303V12.663z M9.303,14.29h0.068h5.418h0.076v0.554H9.303V14.29z"/>
	<rect x="11.189" y="7.854" fill="#FFFFFF" width="1.96" height="2.307"/>
	<rect x="9.372" y="12.675" fill="#FFFFFF" width="5.418" height="0.539"/>
	<path fill="#FFFFFF" d="M14.866,12.663H9.303v0.555h5.562L14.866,12.663L14.866,12.663z M14.79,13.214H9.372v-0.539h5.418V13.214z"
		/>
	<rect x="9.372" y="14.29" fill="#FFFFFF" width="5.418" height="0.539"/>
	<polygon fill="#FFFFFF" points="14.866,14.29 14.79,14.29 14.79,14.829 9.372,14.829 9.372,14.29 9.303,14.29 9.303,14.844 
		14.866,14.844 	"/>
</g>
</svg>
