<?xml version="1.0" encoding="utf-8"?>
<!-- Generator: Adobe Illustrator 15.0.2, SVG Export Plug-In . SVG Version: 6.00 Build 0)  -->
<!DOCTYPE svg PUBLIC "-//W3C//DTD SVG 1.1//EN" "http://www.w3.org/Graphics/SVG/1.1/DTD/svg11.dtd">
<svg version="1.1" id="Calque_1" xmlns="http://www.w3.org/2000/svg" xmlns:xlink="http://www.w3.org/1999/xlink" x="0px" y="0px"
	 width="170px" height="34px" viewBox="-34 0 170 34" enable-background="new -34 0 170 34" xml:space="preserve">
<rect fill="#F01B57" width="34" height="34"/>
<linearGradient id="SVGID_1_" gradientUnits="userSpaceOnUse" x1="1634.958" y1="5280.3174" x2="1634.958" y2="5312.3857" gradientTransform="matrix(1 0 0 1 -1617.959 -5279.3984)">
	<stop  offset="0" style="stop-color:#D31147"/>
	<stop  offset="1" style="stop-color:#F01B57"/>
</linearGradient>
<rect x="1" y="1" fill="url(#SVGID_1_)" width="32" height="32"/>
<rect x="1" y="1" opacity="0.45" fill="#FFFFFE" enable-background="new    " width="32" height="1"/>
<g opacity="0.6" enable-background="new    ">
	<path fill="#2D2D2D" d="M7.182,9l9.005,9.008c0.216,0.217,0.502,0.335,0.813,0.335s0.598-0.118,0.813-0.335L26.818,9H7.182z"/>
	<g>
		<path fill="#2D2D2D" d="M20.445,17.02l-1.793,1.791c-0.443,0.444-1.029,0.666-1.615,0.666s-1.17-0.222-1.615-0.666l-1.829-1.83
			l-7.54,7.539c-0.05,0.059-0.1,0.098-0.149,0.141C6.112,24.87,6.402,25,6.722,25h20.557c0.32,0,0.609-0.137,0.818-0.344
			c-0.055-0.043-0.104-0.082-0.148-0.137L20.445,17.02z"/>
	</g>
	<g>
		<path fill="#2D2D2D" d="M6.09,9.479c-0.058-0.058-0.098-0.116-0.146-0.17c-0.227,0.209-0.371,0.507-0.371,0.839v13.245
			l7.214-7.211L6.09,9.479z"/>
		<path fill="#2D2D2D" d="M27.984,9.479l-6.736,6.736l7.178,7.176V10.147c0-0.312-0.127-0.594-0.328-0.801
			C28.059,9.39,28.029,9.434,27.984,9.479z"/>
	</g>
</g>
<rect x="-34" fill="#F01B57" width="34" height="34"/>
<linearGradient id="SVGID_2_" gradientUnits="userSpaceOnUse" x1="1600.958" y1="5280.3174" x2="1600.958" y2="5312.3857" gradientTransform="matrix(1 0 0 1 -1617.959 -5279.3984)">
	<stop  offset="0" style="stop-color:#D31147"/>
	<stop  offset="1" style="stop-color:#F01B57"/>
</linearGradient>
<rect x="-33" y="1" fill="url(#SVGID_2_)" width="32" height="32"/>
<rect x="-33" y="1" opacity="0.45" fill="#FFFFFE" enable-background="new    " width="32" height="1"/>
<g opacity="0.6" enable-background="new    ">
	<path fill="#2D2D2D" d="M-26.818,9l9.005,9.008c0.216,0.217,0.502,0.335,0.813,0.335s0.598-0.118,0.813-0.335L-7.182,9H-26.818z"/>
	<g>
		<path fill="#2D2D2D" d="M-13.555,17.02l-1.793,1.791c-0.443,0.444-1.029,0.666-1.615,0.666s-1.17-0.222-1.615-0.666l-1.829-1.83
			l-7.54,7.539c-0.05,0.059-0.1,0.098-0.149,0.141c0.208,0.21,0.498,0.34,0.818,0.34h20.557c0.32,0,0.609-0.137,0.818-0.344
			c-0.055-0.043-0.104-0.082-0.148-0.137L-13.555,17.02z"/>
	</g>
	<g>
		<path fill="#2D2D2D" d="M-27.91,9.479c-0.058-0.058-0.098-0.116-0.146-0.17c-0.227,0.209-0.371,0.507-0.371,0.839v13.245
			l7.214-7.211L-27.91,9.479z"/>
		<path fill="#2D2D2D" d="M-6.016,9.479l-6.736,6.736l7.178,7.176V10.147c0-0.312-0.127-0.594-0.328-0.801
			C-5.941,9.39-5.971,9.434-6.016,9.479z"/>
	</g>
</g>
<g>
	<rect x="34" fill="#F01B57" width="34" height="34"/>
	
		<linearGradient id="SVGID_3_" gradientUnits="userSpaceOnUse" x1="1399.3584" y1="1132.6436" x2="1399.3584" y2="1100.5752" gradientTransform="matrix(1 0 0 -1 -1348.3594 1133.5586)">
		<stop  offset="0" style="stop-color:#D31147"/>
		<stop  offset="1" style="stop-color:#F01B57"/>
	</linearGradient>
	<rect x="35" y="1" fill="url(#SVGID_3_)" width="32" height="32"/>
	<rect x="35" y="1" opacity="0.45" fill="#FFFFFE" enable-background="new    " width="32" height="1"/>
	<rect x="35" y="1" opacity="0.22" fill="#FFFFFE" enable-background="new    " width="32" height="32"/>
	<g opacity="0.6">
		<path fill="#0A7039" d="M41.183,9l9.005,9.008c0.216,0.217,0.502,0.334,0.813,0.334s0.598-0.117,0.813-0.334L60.819,9H41.183z"/>
		<g>
			<path fill="#0A7039" d="M54.446,17.018l-1.793,1.792c-0.443,0.443-1.029,0.666-1.615,0.666s-1.17-0.223-1.615-0.666l-1.829-1.832
				l-7.54,7.541c-0.05,0.056-0.1,0.095-0.149,0.138C40.112,24.869,40.402,25,40.723,25H61.28c0.32,0,0.609-0.137,0.818-0.344
				c-0.053-0.043-0.102-0.082-0.148-0.137L54.446,17.018z"/>
		</g>
		<g>
			<path fill="#0A7039" d="M40.09,9.479c-0.058-0.058-0.098-0.116-0.146-0.17c-0.227,0.209-0.371,0.507-0.371,0.839v13.245
				l7.214-7.213L40.09,9.479z"/>
			<path fill="#0A7039" d="M61.985,9.479l-6.736,6.736l7.178,7.176V10.147c0-0.312-0.127-0.594-0.328-0.801
				C62.059,9.39,62.03,9.434,61.985,9.479z"/>
		</g>
	</g>
</g>
<g>
	<rect x="68" fill="#F01B57" width="34" height="34"/>
	
		<linearGradient id="SVGID_4_" gradientUnits="userSpaceOnUse" x1="1433.3584" y1="1132.6436" x2="1433.3584" y2="1100.5752" gradientTransform="matrix(1 0 0 -1 -1348.3594 1133.5586)">
		<stop  offset="0" style="stop-color:#D31147"/>
		<stop  offset="1" style="stop-color:#F01B57"/>
	</linearGradient>
	<rect x="69" y="1" fill="url(#SVGID_4_)" width="32" height="32"/>
	<rect x="69" y="1" opacity="0.45" fill="#FFFFFE" enable-background="new    " width="32" height="1"/>
	<rect x="69" y="1" opacity="0.22" fill="#FFFFFE" enable-background="new    " width="32" height="32"/>
	<g opacity="0.6">
		<path fill="#0A7039" d="M75.184,9l9.004,9.008c0.217,0.217,0.502,0.334,0.813,0.334s0.599-0.117,0.813-0.334L94.818,9H75.184z"/>
		<g>
			<path fill="#0A7039" d="M88.445,17.018l-1.793,1.792c-0.443,0.443-1.029,0.666-1.615,0.666s-1.17-0.223-1.615-0.666l-1.828-1.832
				l-7.539,7.541c-0.051,0.056-0.102,0.095-0.15,0.138C74.111,24.869,74.402,25,74.723,25h20.557c0.32,0,0.609-0.137,0.818-0.344
				c-0.053-0.043-0.102-0.082-0.147-0.137L88.445,17.018z"/>
		</g>
		<g>
			<path fill="#0A7039" d="M74.09,9.479c-0.057-0.058-0.098-0.116-0.146-0.17c-0.228,0.209-0.369,0.507-0.369,0.839v13.245
				l7.213-7.213L74.09,9.479z"/>
			<path fill="#0A7039" d="M95.984,9.479l-6.736,6.736l7.178,7.176V10.147c0-0.312-0.127-0.594-0.328-0.801
				C96.059,9.39,96.029,9.434,95.984,9.479z"/>
		</g>
	</g>
</g>
<g>
	<rect x="102" fill="#F01B57" width="34" height="34"/>
	
		<linearGradient id="SVGID_5_" gradientUnits="userSpaceOnUse" x1="1467.3584" y1="1132.6436" x2="1467.3584" y2="1100.5752" gradientTransform="matrix(1 0 0 -1 -1348.3594 1133.5586)">
		<stop  offset="0" style="stop-color:#D31147"/>
		<stop  offset="1" style="stop-color:#F01B57"/>
	</linearGradient>
	<rect x="103" y="1" fill="url(#SVGID_5_)" width="32" height="32"/>
	<rect x="103" y="1" opacity="0.45" fill="#FFFFFE" enable-background="new    " width="32" height="1"/>
	<rect x="103" y="1" opacity="0.22" fill="#FFFFFE" enable-background="new    " width="32" height="32"/>
	<g opacity="0.6">
		<path fill="#0A7039" d="M109.184,9l9.004,9.008c0.217,0.217,0.502,0.334,0.813,0.334s0.599-0.117,0.813-0.334L128.818,9H109.184z"
			/>
		<g>
			<path fill="#0A7039" d="M122.445,17.018l-1.793,1.792c-0.443,0.443-1.029,0.666-1.615,0.666s-1.17-0.223-1.615-0.666
				l-1.828-1.832l-7.539,7.541c-0.051,0.056-0.102,0.095-0.15,0.138c0.207,0.212,0.498,0.343,0.818,0.343h20.557
				c0.32,0,0.609-0.137,0.818-0.344c-0.053-0.043-0.102-0.082-0.147-0.137L122.445,17.018z"/>
		</g>
		<g>
			<path fill="#0A7039" d="M108.09,9.479c-0.057-0.058-0.098-0.116-0.146-0.17c-0.228,0.209-0.369,0.507-0.369,0.839v13.245
				l7.213-7.213L108.09,9.479z"/>
			<path fill="#0A7039" d="M129.984,9.479l-6.736,6.736l7.178,7.176V10.147c0-0.312-0.127-0.594-0.328-0.801
				C130.059,9.39,130.029,9.434,129.984,9.479z"/>
		</g>
	</g>
</g>
</svg>
