<?xml version="1.0" encoding="utf-8"?>
<!-- Generator: Adobe Illustrator 15.0.2, SVG Export Plug-In . SVG Version: 6.00 Build 0)  -->
<!DOCTYPE svg PUBLIC "-//W3C//DTD SVG 1.1//EN" "http://www.w3.org/Graphics/SVG/1.1/DTD/svg11.dtd">
<svg version="1.1" id="Calque_1" xmlns="http://www.w3.org/2000/svg" xmlns:xlink="http://www.w3.org/1999/xlink" x="0px" y="0px"
	 width="24px" height="24px" viewBox="28 0 24 24" enable-background="new 28 0 24 24" xml:space="preserve">
<g>
	<circle fill="#1191BB" cx="40" cy="12" r="8"/>
	<g opacity="0.25">
		<path d="M39.31,14.063c-0.397,0-0.771-0.153-1.05-0.435l-1.492-1.492c-0.579-0.578-0.579-1.521,0-2.1l1.259-1.259
			c0.279-0.28,0.652-0.435,1.049-0.435s0.771,0.154,1.05,0.435l1.491,1.492c0.58,0.579,0.58,1.521,0,2.101l-1.258,1.258
			C40.08,13.907,39.707,14.063,39.31,14.063z M39.077,9.522c-0.046,0-0.138,0.013-0.215,0.089l-1.259,1.258
			c-0.117,0.117-0.117,0.315,0,0.432l1.49,1.491c0.077,0.077,0.17,0.089,0.217,0.089s0.139-0.012,0.216-0.089l1.258-1.258
			c0.116-0.116,0.116-0.314,0-0.431l-1.491-1.492C39.217,9.535,39.125,9.522,39.077,9.522z"/>
		<path d="M42.757,17.49c-0.397,0-0.771-0.154-1.051-0.436l-1.491-1.492c-0.579-0.578-0.579-1.521,0-2.101l1.26-1.259
			c0.277-0.279,0.651-0.434,1.049-0.434c0.398,0,0.771,0.155,1.051,0.434l1.492,1.49c0.578,0.578,0.578,1.521,0,2.102l-1.26,1.26
			C43.525,17.336,43.154,17.49,42.757,17.49z M42.523,12.953c-0.047,0-0.14,0.011-0.217,0.087l-1.259,1.26
			c-0.116,0.117-0.116,0.313,0,0.431l1.491,1.49c0.077,0.077,0.168,0.09,0.217,0.09c0.046,0,0.139-0.013,0.217-0.09l1.258-1.258
			c0.117-0.117,0.117-0.314,0-0.434l-1.491-1.489C42.663,12.964,42.57,12.953,42.523,12.953z"/>
		<g>
			<path d="M42.288,14.443c-0.194,0.193-0.511,0.193-0.704,0l-2.115-2.117c-0.193-0.193-0.193-0.512,0-0.703l0.15-0.152
				c0.194-0.193,0.51-0.193,0.704,0l2.116,2.115c0.192,0.193,0.192,0.51,0,0.705L42.288,14.443z"/>
		</g>
	</g>
	<g>
		<path fill="#FFFFFE" d="M38.476,13.229c-0.397,0-0.771-0.153-1.05-0.433l-1.492-1.494c-0.579-0.577-0.579-1.52,0-2.1l1.259-1.258
			c0.279-0.281,0.652-0.435,1.049-0.435c0.398,0,0.771,0.154,1.051,0.435l1.491,1.492c0.58,0.58,0.58,1.522,0,2.1l-1.258,1.26
			C39.247,13.072,38.874,13.229,38.476,13.229z M38.243,8.689c-0.046,0-0.138,0.013-0.216,0.088l-1.258,1.259
			c-0.117,0.117-0.117,0.315,0,0.432l1.49,1.491c0.077,0.077,0.17,0.089,0.216,0.089c0.047,0,0.139-0.012,0.216-0.089l1.258-1.258
			c0.117-0.117,0.117-0.314,0-0.43L38.46,8.777C38.383,8.702,38.291,8.689,38.243,8.689z"/>
		<path fill="#FFFFFE" d="M41.923,16.656c-0.397,0-0.771-0.154-1.05-0.434l-1.491-1.492c-0.579-0.578-0.579-1.521,0-2.101
			l1.259-1.26c0.278-0.279,0.652-0.434,1.051-0.434c0.397,0,0.771,0.154,1.05,0.434l1.491,1.493c0.58,0.576,0.58,1.52,0,2.1
			l-1.258,1.26C42.693,16.502,42.32,16.656,41.923,16.656z M41.689,12.119c-0.047,0-0.139,0.011-0.215,0.087l-1.26,1.26
			c-0.116,0.117-0.116,0.313,0,0.431l1.492,1.49c0.076,0.077,0.167,0.09,0.216,0.09c0.046,0,0.138-0.013,0.216-0.09l1.258-1.258
			c0.117-0.117,0.117-0.314,0-0.434l-1.492-1.489C41.83,12.13,41.736,12.119,41.689,12.119z"/>
		<g>
			<path fill="#FFFFFE" d="M41.455,13.609c-0.194,0.193-0.51,0.193-0.704,0l-2.115-2.117c-0.194-0.192-0.194-0.511,0-0.702
				l0.149-0.152c0.194-0.192,0.511-0.192,0.704,0l2.116,2.115c0.192,0.194,0.192,0.513,0,0.705L41.455,13.609z"/>
		</g>
	</g>
</g>
</svg>
