<?xml version="1.0" encoding="utf-8"?>
<!-- Generator: Adobe Illustrator 15.0.2, SVG Export Plug-In . SVG Version: 6.00 Build 0)  -->
<!DOCTYPE svg PUBLIC "-//W3C//DTD SVG 1.1//EN" "http://www.w3.org/Graphics/SVG/1.1/DTD/svg11.dtd">
<svg version="1.1" id="Calque_1" xmlns="http://www.w3.org/2000/svg" xmlns:xlink="http://www.w3.org/1999/xlink" x="0px" y="0px"
	 width="24px" height="24px" viewBox="28 0 24 24" enable-background="new 28 0 24 24" xml:space="preserve">
<g>
	<circle fill="#1191BB" cx="40" cy="12" r="8"/>
	<path opacity="0.25" enable-background="new    " d="M45.993,11.658c0-1.687-1.144-3.214-2.851-3.636
		c-0.301-0.074-0.604-0.109-0.899-0.109c-1.688-0.001-3.214,1.145-3.639,2.853c-0.074,0.3-0.108,0.602-0.108,0.898
		c0,0.67,0.187,1.311,0.513,1.874L36.2,16.371c-0.372,0.376-0.368,0.98,0.007,1.354C36.392,17.907,36.636,18,36.879,18
		c0.247,0,0.492-0.096,0.679-0.285l2.801-2.824c0.304,0.176,0.63,0.325,0.988,0.412c0.302,0.074,0.601,0.107,0.898,0.107
		c1.688,0,3.217-1.143,3.639-2.85l-0.557-0.138l0.557,0.138C45.957,12.258,45.993,11.956,45.993,11.658z M44.77,12.285
		c-0.291,1.188-1.355,1.979-2.524,1.979c-0.206,0-0.416-0.022-0.625-0.074c-0.313-0.078-0.599-0.213-0.853-0.387
		c-0.264-0.184-0.485-0.414-0.665-0.674c-0.291-0.427-0.462-0.933-0.462-1.464c0-0.207,0.023-0.414,0.075-0.623
		c0.293-1.187,1.357-1.982,2.524-1.982c0.205,0,0.413,0.023,0.624,0.077c1.187,0.29,1.979,1.354,1.979,2.521
		C44.846,11.865,44.821,12.073,44.77,12.285z"/>
	<path fill="#FFFFFE" d="M45.08,10.745c0-1.687-1.145-3.215-2.852-3.636C41.93,7.035,41.627,7,41.33,7
		c-1.689-0.001-3.214,1.145-3.64,2.853c-0.074,0.301-0.108,0.602-0.108,0.897c0,0.67,0.186,1.311,0.512,1.872l-2.809,2.836
		c-0.371,0.375-0.367,0.981,0.007,1.353c0.186,0.184,0.43,0.276,0.672,0.276c0.247,0,0.492-0.095,0.679-0.284l2.801-2.826
		c0.304,0.176,0.63,0.324,0.989,0.412c0.302,0.073,0.601,0.108,0.899,0.108c1.688,0,3.217-1.144,3.639-2.85l-0.556-0.139
		l0.556,0.138C45.045,11.346,45.08,11.042,45.08,10.745z M43.857,11.372c-0.291,1.187-1.355,1.978-2.525,1.978
		c-0.207,0-0.416-0.021-0.625-0.072c-0.314-0.077-0.599-0.213-0.851-0.387c-0.266-0.185-0.487-0.415-0.665-0.675
		c-0.292-0.427-0.463-0.932-0.463-1.463c0-0.207,0.025-0.415,0.076-0.623c0.292-1.186,1.356-1.981,2.523-1.981
		c0.205,0,0.413,0.024,0.624,0.077c1.188,0.29,1.979,1.355,1.979,2.522C43.932,10.953,43.908,11.161,43.857,11.372z"/>
</g>
</svg>
