<?xml version="1.0" encoding="utf-8"?>
<!-- Generator: Adobe Illustrator 15.0.2, SVG Export Plug-In . SVG Version: 6.00 Build 0)  -->
<!DOCTYPE svg PUBLIC "-//W3C//DTD SVG 1.1//EN" "http://www.w3.org/Graphics/SVG/1.1/DTD/svg11.dtd">
<svg version="1.1" id="Calque_1" xmlns="http://www.w3.org/2000/svg" xmlns:xlink="http://www.w3.org/1999/xlink" x="0px" y="0px"
	 width="24px" height="24px" viewBox="28 0 24 24" enable-background="new 28 0 24 24" xml:space="preserve">
<g>
	<circle fill="#1191BB" cx="40" cy="12" r="8"/>
	<path opacity="0.25" enable-background="new    " d="M43.064,8.834c-0.89,0-1.648,1.418-2.065,1.854
		c-0.417-0.437-1.174-1.854-2.063-1.854c-1.53,0-2.6,1.066-2.6,2.595c0,1.684,1.327,2.771,2.612,3.823
		c0.606,0.497,1.715,1.581,1.715,1.581l0.323,0.333h0.024l0.324-0.333c0,0,1.106-1.084,1.715-1.58
		c1.285-1.053,2.613-2.142,2.613-3.824C45.665,9.901,44.596,8.834,43.064,8.834z"/>
	<path fill="#FFFFFE" d="M42.064,7.834c-0.89,0-1.648,1.418-2.065,1.854c-0.417-0.437-1.174-1.854-2.063-1.854
		c-1.53,0-2.6,1.066-2.6,2.595c0,1.684,1.327,2.771,2.612,3.823c0.606,0.497,1.715,1.581,1.715,1.581l0.324,0.333h0.024l0.324-0.333
		c0,0,1.106-1.084,1.715-1.58c1.285-1.053,2.613-2.141,2.613-3.824C44.665,8.901,43.596,7.834,42.064,7.834z"/>
</g>
</svg>
