<?xml version="1.0" encoding="utf-8"?>
<!-- Generator: Adobe Illustrator 15.0.2, SVG Export Plug-In . SVG Version: 6.00 Build 0)  -->
<!DOCTYPE svg PUBLIC "-//W3C//DTD SVG 1.1//EN" "http://www.w3.org/Graphics/SVG/1.1/DTD/svg11.dtd">
<svg version="1.1" id="Calque_1" xmlns="http://www.w3.org/2000/svg" xmlns:xlink="http://www.w3.org/1999/xlink" x="0px" y="0px"
	 width="24px" height="24px" viewBox="0 0 24 24" enable-background="new 0 0 24 24" xml:space="preserve">
<circle fill="#1191BB" cx="12" cy="12" r="8"/>
<g id="exit-to-app_1_" opacity="0.25">
	<path d="M11.002,11.943l-0.78,0.778L13,15.5l2.777-2.778l-0.778-0.778l-1.444,1.445V8h-1.111v5.389L11.002,11.943z M18,16.891
		V9.111C18,8.5,17.499,8,16.891,8h-2.227v1.111h2.227v7.779H9.111V9.111h2.224V8H9.111C8.5,8,8,8.5,8,9.111v7.779
		C8,17.499,8.5,18,9.111,18h7.779C17.499,18,18,17.499,18,16.891z"/>
</g>
<g id="exit-to-app">
	<path fill="#FFFFFE" d="M10.002,10.943l-0.78,0.778L12,14.5l2.777-2.778l-0.778-0.778l-1.444,1.445V7h-1.111v5.389L10.002,10.943z
		 M17,15.891V8.111C17,7.5,16.499,7,15.891,7h-2.227v1.111h2.227v7.779H8.111V8.111h2.224V7H8.111C7.5,7,7,7.5,7,8.111v7.779
		C7,16.499,7.5,17,8.111,17h7.779C16.499,17,17,16.499,17,15.891z"/>
</g>
</svg>
