<?xml version="1.0" encoding="utf-8"?>
<!-- Generator: Adobe Illustrator 15.0.2, SVG Export Plug-In . SVG Version: 6.00 Build 0)  -->
<!DOCTYPE svg PUBLIC "-//W3C//DTD SVG 1.1//EN" "http://www.w3.org/Graphics/SVG/1.1/DTD/svg11.dtd">
<svg version="1.1" id="Calque_1" xmlns="http://www.w3.org/2000/svg" xmlns:xlink="http://www.w3.org/1999/xlink" x="0px" y="0px"
	 width="24px" height="24px" viewBox="28 0 24 24" enable-background="new 28 0 24 24" xml:space="preserve">
<g>
	<circle fill="#1191BB" cx="40" cy="12" r="8"/>
	<polygon opacity="0.25" enable-background="new    " points="43.076,7.935 41.813,9.198 41.18,9.831 36.656,14.355 36.363,16.805 
		36.363,16.805 36.213,18.064 39.924,17.622 44.445,13.1 45.079,12.467 46.344,11.202 	"/>
	<g>
		
			<rect x="40.766" y="8.291" transform="matrix(0.7071 0.7071 -0.7071 0.7071 19.112 -27.7698)" fill="#C92800" width="4.622" height="1.788"/>
		
			<rect x="39.818" y="9.687" transform="matrix(0.7071 0.7071 -0.7071 0.7071 19.5055 -26.8213)" fill="#CFCFCF" width="4.621" height="0.895"/>
		
			<rect x="37.242" y="9.514" transform="matrix(0.7073 0.7069 -0.7069 0.7073 20.5623 -24.2381)" fill="#FFCC00" width="4.62" height="6.397"/>
		<polygon fill="#978745" points="38.923,16.607 35.656,13.341 35.213,17.051 		"/>
		<polygon fill="#2A2E1F" points="35.213,17.051 36.474,16.898 35.364,15.789 		"/>
	</g>
</g>
</svg>
