<?xml version="1.0" encoding="utf-8"?>
<!-- Generator: Adobe Illustrator 15.0.2, SVG Export Plug-In . SVG Version: 6.00 Build 0)  -->
<!DOCTYPE svg PUBLIC "-//W3C//DTD SVG 1.1//EN" "http://www.w3.org/Graphics/SVG/1.1/DTD/svg11.dtd">
<svg version="1.1" id="Calque_1" xmlns="http://www.w3.org/2000/svg" xmlns:xlink="http://www.w3.org/1999/xlink" x="0px" y="0px"
	 width="170px" height="34px" viewBox="-34 0 170 34" enable-background="new -34 0 170 34" xml:space="preserve">
<g>
	<rect fill="#F01B57" width="34" height="34"/>
	
		<linearGradient id="SVGID_1_" gradientUnits="userSpaceOnUse" x1="1634.958" y1="5280.3174" x2="1634.958" y2="5312.3857" gradientTransform="matrix(1 0 0 1 -1617.959 -5279.3984)">
		<stop  offset="0" style="stop-color:#D31147"/>
		<stop  offset="1" style="stop-color:#F01B57"/>
	</linearGradient>
	<rect x="1" y="1" fill="url(#SVGID_1_)" width="32" height="32"/>
	<rect x="1" y="1" opacity="0.45" fill="#FFFFFE" enable-background="new    " width="32" height="1"/>
	<path opacity="0.6" fill="#2D2D2D" enable-background="new    " d="M16.99,9c-4.509,0-4.292,5.569-4.292,5.569
		s-0.626-0.082-0.626,0.842s0.653,0.924,0.653,0.924c0,0.951,1.82,2.526,1.82,2.526v0.543C10.661,19.402,9.6,25,9.6,25h14.798
		c0,0-1.063-5.598-4.944-5.598v-0.543c0,0,1.819-1.574,1.819-2.525c0,0,0.649,0,0.649-0.924c0-0.923-0.625-0.842-0.625-0.842
		S21.52,9,17.011,9H16.99z"/>
</g>
<g>
	<rect x="-34" fill="#F01B57" width="34" height="34"/>
	
		<linearGradient id="SVGID_2_" gradientUnits="userSpaceOnUse" x1="1600.958" y1="5280.3174" x2="1600.958" y2="5312.3857" gradientTransform="matrix(1 0 0 1 -1617.959 -5279.3984)">
		<stop  offset="0" style="stop-color:#D31147"/>
		<stop  offset="1" style="stop-color:#F01B57"/>
	</linearGradient>
	<rect x="-33" y="1" fill="url(#SVGID_2_)" width="32" height="32"/>
	<rect x="-33" y="1" opacity="0.45" fill="#FFFFFE" enable-background="new    " width="32" height="1"/>
	<path opacity="0.6" fill="#2D2D2D" enable-background="new    " d="M-17.01,9c-4.509,0-4.292,5.569-4.292,5.569
		s-0.626-0.082-0.626,0.842s0.653,0.924,0.653,0.924c0,0.951,1.82,2.526,1.82,2.526v0.543C-23.339,19.402-24.4,25-24.4,25h14.798
		c0,0-1.063-5.598-4.944-5.598v-0.543c0,0,1.819-1.574,1.819-2.525c0,0,0.649,0,0.649-0.924c0-0.923-0.625-0.842-0.625-0.842
		S-12.48,9-16.989,9H-17.01z"/>
</g>
<g>
	<rect x="34" fill="#F01B57" width="34" height="34"/>
	
		<linearGradient id="SVGID_3_" gradientUnits="userSpaceOnUse" x1="1399.3584" y1="1132.6436" x2="1399.3584" y2="1100.5752" gradientTransform="matrix(1 0 0 -1 -1348.3594 1133.5586)">
		<stop  offset="0" style="stop-color:#D31147"/>
		<stop  offset="1" style="stop-color:#F01B57"/>
	</linearGradient>
	<rect x="35" y="1" fill="url(#SVGID_3_)" width="32" height="32"/>
	<rect x="35" y="1" opacity="0.45" fill="#FFFFFE" enable-background="new    " width="32" height="1"/>
	<rect x="35" y="1" opacity="0.22" fill="#FFFFFE" enable-background="new    " width="32" height="32"/>
	<path opacity="0.6" fill="#0A7039" enable-background="new    " d="M50.99,9c-4.509,0-4.292,5.569-4.292,5.569
		s-0.626-0.082-0.626,0.842s0.653,0.924,0.653,0.924c0,0.951,1.82,2.526,1.82,2.526v0.543C44.661,19.402,43.6,25,43.6,25h14.798
		c0,0-1.062-5.598-4.944-5.598v-0.543c0,0,1.819-1.574,1.819-2.525c0,0,0.651,0,0.651-0.924c0-0.923-0.625-0.842-0.625-0.842
		S55.52,9,51.011,9H50.99z"/>
</g>
<g>
	<rect x="68" fill="#F01B57" width="34" height="34"/>
	
		<linearGradient id="SVGID_4_" gradientUnits="userSpaceOnUse" x1="1433.3584" y1="1132.6436" x2="1433.3584" y2="1100.5752" gradientTransform="matrix(1 0 0 -1 -1348.3594 1133.5586)">
		<stop  offset="0" style="stop-color:#D31147"/>
		<stop  offset="1" style="stop-color:#F01B57"/>
	</linearGradient>
	<rect x="69" y="1" fill="url(#SVGID_4_)" width="32" height="32"/>
	<rect x="69" y="1" opacity="0.45" fill="#FFFFFE" enable-background="new    " width="32" height="1"/>
	<rect x="69" y="1" opacity="0.22" fill="#FFFFFE" enable-background="new    " width="32" height="32"/>
	<path opacity="0.6" fill="#0A7039" enable-background="new    " d="M84.99,9c-4.51,0-4.293,5.569-4.293,5.569
		s-0.625-0.082-0.625,0.842s0.652,0.924,0.652,0.924c0,0.951,1.819,2.526,1.819,2.526v0.543C78.661,19.402,77.6,25,77.6,25h14.799
		c0,0-1.062-5.598-4.943-5.598v-0.543c0,0,1.818-1.574,1.818-2.525c0,0,0.651,0,0.651-0.924c0-0.923-0.625-0.842-0.625-0.842
		S89.52,9,85.012,9H84.99z"/>
</g>
<g>
	<rect x="102" fill="#F01B57" width="34" height="34"/>
	
		<linearGradient id="SVGID_5_" gradientUnits="userSpaceOnUse" x1="1467.3584" y1="1132.6436" x2="1467.3584" y2="1100.5752" gradientTransform="matrix(1 0 0 -1 -1348.3594 1133.5586)">
		<stop  offset="0" style="stop-color:#D31147"/>
		<stop  offset="1" style="stop-color:#F01B57"/>
	</linearGradient>
	<rect x="103" y="1" fill="url(#SVGID_5_)" width="32" height="32"/>
	<rect x="103" y="1" opacity="0.45" fill="#FFFFFE" enable-background="new    " width="32" height="1"/>
	<rect x="103" y="1" opacity="0.22" fill="#FFFFFE" enable-background="new    " width="32" height="32"/>
	<path opacity="0.6" fill="#0A7039" enable-background="new    " d="M118.99,9c-4.51,0-4.293,5.569-4.293,5.569
		s-0.625-0.082-0.625,0.842s0.652,0.924,0.652,0.924c0,0.951,1.819,2.526,1.819,2.526v0.543C112.661,19.402,111.6,25,111.6,25
		h14.799c0,0-1.062-5.598-4.943-5.598v-0.543c0,0,1.818-1.574,1.818-2.525c0,0,0.651,0,0.651-0.924c0-0.923-0.625-0.842-0.625-0.842
		S123.52,9,119.012,9H118.99z"/>
</g>
</svg>
