<?xml version="1.0" encoding="utf-8"?>
<!-- Generator: Adobe Illustrator 15.0.2, SVG Export Plug-In . SVG Version: 6.00 Build 0)  -->
<!DOCTYPE svg PUBLIC "-//W3C//DTD SVG 1.1//EN" "http://www.w3.org/Graphics/SVG/1.1/DTD/svg11.dtd">
<svg version="1.1" id="Calque_1" xmlns="http://www.w3.org/2000/svg" xmlns:xlink="http://www.w3.org/1999/xlink" x="0px" y="0px"
	 width="22px" height="18px" viewBox="0 -1 22 18" enable-background="new 0 -1 22 18" xml:space="preserve">
<g>
	<path fill="#FFF5F5" d="M18,4.942v10.09C18,16.113,17.038,17,15.865,17H4.133C2.96,17,2,16.113,2,15.032V4.937"/>
	<g>
		
			<linearGradient id="SVGID_1_" gradientUnits="userSpaceOnUse" x1="2746.8789" y1="-5128.8984" x2="2746.8789" y2="-5127.3135" gradientTransform="matrix(1 0 0 -1 -2736.8779 -5111.8984)">
			<stop  offset="0" style="stop-color:#000000;stop-opacity:0.2"/>
			<stop  offset="1" style="stop-color:#000000;stop-opacity:0"/>
		</linearGradient>
		<path fill="url(#SVGID_1_)" d="M4.142,17h11.717c1.029,0,1.894-0.688,2.088-1.585H2.053C2.248,16.314,3.112,17,4.142,17z"/>
	</g>
	<g>
		<path fill="#EEEBE8" d="M13.863,1h-7.73C2,1,2,4.357,2,5.437l0,0h16l0,0C17.998,4.357,18,1,13.863,1z"/>
	</g>
	
		<linearGradient id="SVGID_2_" gradientUnits="userSpaceOnUse" x1="1341.3193" y1="2317.5391" x2="1341.3193" y2="2333.5391" gradientTransform="matrix(1 0 0 1 -1331.3193 -2316.5391)">
		<stop  offset="0" style="stop-color:#2AEDFF;stop-opacity:0"/>
		<stop  offset="1" style="stop-color:#2AEDFF"/>
	</linearGradient>
	<path fill="url(#SVGID_2_)" d="M17.991,4.942C17.936,3.577,17.488,1,13.863,1h-7.73C2.517,1,2.064,3.569,2.008,4.937H2v10.095
		C2,16.113,2.96,17,4.133,17h11.732C17.038,17,18,16.113,18,15.032V4.942H17.991z M6.133,1.501h7.73
		c2.927,0,3.535,1.738,3.623,3.436H2.512C2.598,3.242,3.204,1.501,6.133,1.501z M17.5,5.444v9.588c0,0.809-0.732,1.466-1.635,1.466
		H4.133c-0.9,0-1.633-0.657-1.633-1.466V5.437L17.5,5.444z"/>
	<polygon fill="#2AEDFF" points="14.335,16.996 17.998,16.996 17.998,13.322 	"/>
	<g>
		<path fill="#006E12" d="M8.266,11.216c0.179-0.116,0.341-0.274,0.484-0.475c0.219-0.306,0.33-0.658,0.33-1.056
			c0-0.521-0.199-0.958-0.593-1.292C8.1,8.067,7.597,7.901,6.99,7.901c-0.696,0-1.204,0.202-1.508,0.6L5.422,8.58l0.554,0.852
			l0.122-0.138c0.205-0.231,0.475-0.346,0.825-0.346c0.637,0,0.934,0.291,0.934,0.914c0,0.595-0.318,0.869-1.001,0.869H6.675v1.013
			h0.212c0.368,0,0.652,0.101,0.869,0.312c0.216,0.204,0.321,0.471,0.321,0.807c0,0.74-0.353,1.088-1.109,1.088
			c-0.411,0-0.741-0.146-1.01-0.439l-0.125-0.14l-0.591,0.946l0.085,0.082c0.178,0.164,0.411,0.303,0.714,0.42
			c0.297,0.115,0.605,0.177,0.913,0.177c0.73,0,1.308-0.183,1.718-0.534C9.089,14.1,9.3,13.585,9.3,12.934
			c0-0.449-0.122-0.844-0.363-1.16C8.76,11.536,8.535,11.35,8.266,11.216z"/>
		<path fill="#006E12" d="M12.555,7.992l-0.041,0.054c-0.207,0.264-0.496,0.543-0.863,0.832c-0.372,0.292-0.727,0.524-1.055,0.692
			l-0.078,0.039v1.181l1.336-0.836V14.9h1.183V7.992H12.555z"/>
	</g>
</g>
</svg>
