<?xml version="1.0" encoding="utf-8"?>
<!-- Generator: Adobe Illustrator 15.0.2, SVG Export Plug-In . SVG Version: 6.00 Build 0)  -->
<!DOCTYPE svg PUBLIC "-//W3C//DTD SVG 1.1//EN" "http://www.w3.org/Graphics/SVG/1.1/DTD/svg11.dtd">
<svg version="1.1" id="Calque_1" xmlns="http://www.w3.org/2000/svg" xmlns:xlink="http://www.w3.org/1999/xlink" x="0px" y="0px"
	 width="35px" height="35px" viewBox="0 0 35 35" enable-background="new 0 0 35 35" xml:space="preserve">
<path fill="#FFFBFF" d="M2.228,28.797c0.152-0.403,0.373-0.725,0.664-0.971l7.314-6.949c0.516,0.785,1.101,1.508,1.762,2.168
	c0.771,0.768,1.623,1.437,2.558,2.008l-7.489,7.123c-0.245,0.269-0.553,0.475-0.927,0.613C5.736,32.929,5.357,33,4.973,33
	c-0.396,0-0.778-0.076-1.146-0.234c-0.366-0.158-0.697-0.388-0.987-0.69c-0.28-0.294-0.49-0.619-0.631-0.979
	C2.069,30.734,2,30.367,2,29.992C2,29.596,2.075,29.2,2.228,28.797z"/>
<path fill="#FFFBFF" d="M27.615,22.856c0.109-0.069,0.221-0.138,0.327-0.21C27.836,22.721,27.725,22.787,27.615,22.856z"/>
<path fill="#FFFBFF" d="M27.561,22.891c-0.055,0.031-0.104,0.064-0.156,0.094c-0.443,0.26-0.906,0.491-1.384,0.688
	c0.032-0.014,0.065-0.029,0.101-0.042C26.627,23.412,27.104,23.166,27.561,22.891z"/>
<path fill="#FFFBFF" d="M24.727,24.121c-0.006,0.002-0.014,0.004-0.022,0.006c0.013-0.004,0.02-0.006,0.031-0.01
	C24.732,24.119,24.729,24.119,24.727,24.121z"/>
<path fill="#FFFBFF" d="M24.735,24.117c0.438-0.123,0.866-0.274,1.285-0.445C25.598,23.848,25.174,23.996,24.735,24.117z"/>
<path fill="#FFFBFF" d="M24.477,24.187c0.074-0.017,0.152-0.04,0.228-0.06C24.629,24.146,24.552,24.17,24.477,24.187z"/>
<path fill="#FFFBFF" d="M27.561,22.891c0.017-0.014,0.035-0.021,0.055-0.034C27.596,22.869,27.577,22.879,27.561,22.891z"/>
<path fill="#FFFBFF" d="M21.747,2c1.55,0,3.007,0.295,4.374,0.887s2.562,1.396,3.576,2.413c1.018,1.017,1.823,2.212,2.413,3.586
	C32.705,10.26,33,11.722,33,13.271c0,1.55-0.295,3.008-0.89,4.374c-0.59,1.366-1.396,2.559-2.413,3.574
	c-0.534,0.535-1.123,1.013-1.755,1.43c0.622-0.416,1.202-0.893,1.736-1.428c0.681-0.686,1.269-1.447,1.757-2.282
	c0.49-0.831,0.867-1.727,1.135-2.681c0.268-0.955,0.404-1.952,0.404-2.988c0-1.038-0.137-2.034-0.404-2.99s-0.645-1.85-1.135-2.684
	c-0.49-0.833-1.076-1.591-1.757-2.272c-0.685-0.681-1.442-1.267-2.274-1.756c-0.835-0.487-1.729-0.867-2.684-1.136
	c-0.957-0.267-1.947-0.401-2.973-0.401c-1.566,0-3.029,0.295-4.399,0.883c-0.961,0.412-1.836,0.934-2.625,1.56
	c0.795-0.635,1.677-1.164,2.647-1.586C18.736,2.295,20.195,2,21.747,2z"/>
<path fill="#FFFBFF" d="M17.348,2.912c-0.96,0.413-1.836,0.934-2.625,1.56C14.4,4.73,14.087,5.005,13.794,5.298
	c-1.017,1.016-1.823,2.212-2.415,3.586c-0.593,1.375-0.888,2.837-0.888,4.386c0,1.55,0.295,3.008,0.888,4.374
	c0.592,1.366,1.396,2.559,2.415,3.573c1.018,1.02,2.209,1.822,3.577,2.414c1.365,0.591,2.825,0.886,4.377,0.886
	c0.943,0,1.852-0.109,2.729-0.329c0.074-0.018,0.151-0.04,0.228-0.059c0.012-0.004,0.02-0.008,0.031-0.01
	c0.438-0.125,0.867-0.275,1.285-0.445c0.031-0.014,0.066-0.029,0.102-0.043c0.504-0.218,0.981-0.465,1.438-0.739
	c0.018-0.013,0.035-0.021,0.056-0.034c0.109-0.068,0.221-0.137,0.327-0.209c0.622-0.416,1.201-0.893,1.736-1.428
	c0.682-0.686,1.268-1.447,1.758-2.282c0.488-0.831,0.866-1.727,1.135-2.681c0.268-0.955,0.402-1.952,0.402-2.988
	c0-1.038-0.135-2.034-0.402-2.99c-0.269-0.956-0.646-1.85-1.135-2.684c-0.49-0.833-1.078-1.591-1.758-2.272
	c-0.684-0.681-1.442-1.267-2.273-1.756c-0.836-0.487-1.729-0.867-2.686-1.136c-0.956-0.267-1.946-0.401-2.972-0.401
	C20.182,2.029,18.718,2.324,17.348,2.912z M16.185,7.691c0.711-0.71,1.544-1.273,2.5-1.687c0.955-0.412,1.977-0.62,3.062-0.62
	s2.103,0.208,3.061,0.62c0.955,0.414,1.79,0.977,2.5,1.687c0.712,0.711,1.273,1.547,1.687,2.508
	c0.416,0.962,0.623,1.984,0.623,3.069c0,1.082-0.207,2.103-0.623,3.058c-0.413,0.954-0.975,1.789-1.687,2.498
	c-0.71,0.712-1.545,1.273-2.5,1.688c-0.958,0.413-1.976,0.619-3.061,0.619s-2.106-0.206-3.062-0.619
	c-0.956-0.416-1.791-0.977-2.5-1.688c-0.711-0.709-1.274-1.544-1.688-2.498c-0.413-0.956-0.621-1.976-0.621-3.058
	c0-1.084,0.208-2.107,0.621-3.069C14.91,9.238,15.474,8.403,16.185,7.691z"/>
</svg>
