<?xml version="1.0" encoding="utf-8"?>
<!-- Generator: Adobe Illustrator 15.0.2, SVG Export Plug-In . SVG Version: 6.00 Build 0)  -->
<!DOCTYPE svg PUBLIC "-//W3C//DTD SVG 1.1//EN" "http://www.w3.org/Graphics/SVG/1.1/DTD/svg11.dtd">
<svg version="1.1" id="Calque_1" xmlns="http://www.w3.org/2000/svg" xmlns:xlink="http://www.w3.org/1999/xlink" x="0px" y="0px"
	 width="96px" height="24.275px" viewBox="0 0 96 24.275" enable-background="new 0 0 96 24.275" xml:space="preserve">
<rect x="20" y="0" fill="#EEEBE8" width="4" height="24.275"/>
<rect x="23" y="0" fill="#2AEDFF" width="1" height="24.275"/>
<rect x="20" y="0" fill="#2AEDFF" width="1" height="24.275"/>
<g>
	<rect x="44.516" y="0" fill="#EEEBE8" width="3.484" height="24.275"/>
</g>
<rect x="46.984" y="0" fill="#2AEDFF" width="1" height="24.275"/>
<g id="Effet_NoPatch">
</g>
<rect x="92" y="0" fill="#EEEBE8" width="4" height="24.275"/>
<rect x="95" y="0" fill="#2AEDFF" width="1" height="24.275"/>
<rect x="92" y="0" fill="#2AEDFF" width="1" height="24.275"/>
<polyline fill="#2AEDFF" points="44.016,22.009 43.499,22 43.482,23 44,23.009 44,24.275 45,24.275 45,23 45.016,23 45.016,0 
	44.016,0 "/>
<g>
	
		<linearGradient id="SVGID_1_" gradientUnits="userSpaceOnUse" x1="227.6201" y1="-306.6848" x2="227.6201" y2="-286.675" gradientTransform="matrix(1 0 0 -1 -192.5996 -284.6851)">
		<stop  offset="0" style="stop-color:#EEEBE8"/>
		<stop  offset="1" style="stop-color:#E8C6B0"/>
	</linearGradient>
	<path fill="url(#SVGID_1_)" d="M45.032,21.988c0,0-0.349,0.012-0.779,0.012H25.786c-0.431,0-0.779-1.181-0.779-2.641V4.63
		c0-1.458,0.349-2.64,0.779-2.64h18.467c0.431,0,0.779,0,0.779,0v17.369V21.988L45.032,21.988z"/>
</g>
<path fill="#2AEDFF" d="M24,4.034c0-1.677,1.366-3.035,3.054-3.035h17.041v1H27.054c-1.129,0-2.047,0.914-2.047,2.035l0,0v15.931
	c0,1.121,0.918,2.035,2.047,2.035h17.041v1H27.054C25.366,23,24,21.641,24,19.965V4.034"/>
<linearGradient id="SVGID_2_" gradientUnits="userSpaceOnUse" x1="44.0952" y1="11.9949" x2="45.0322" y2="11.9949">
	<stop  offset="0" style="stop-color:#EEEBE8;stop-opacity:0"/>
	<stop  offset="1" style="stop-color:#EEEBE8"/>
</linearGradient>
<rect x="44.095" y="1.99" fill="url(#SVGID_2_)" width="0.937" height="20.01"/>
<g>
	<rect x="68.516" y="0" fill="#EEEBE8" width="3.484" height="24.275"/>
</g>
<rect x="70.984" y="0" fill="#2AEDFF" width="1" height="24.275"/>
<polyline fill="#2AEDFF" points="68.016,22.009 67.499,22 67.482,23 68,23.009 68,24.275 69,24.275 69,23 69.016,23 69.016,0 
	68.016,0 "/>
<g>
	
		<linearGradient id="SVGID_3_" gradientUnits="userSpaceOnUse" x1="251.6201" y1="-306.6848" x2="251.6201" y2="-286.675" gradientTransform="matrix(1 0 0 -1 -192.5996 -284.6851)">
		<stop  offset="0" style="stop-color:#EEEBE8"/>
		<stop  offset="1" style="stop-color:#E8C6B0"/>
	</linearGradient>
	<path fill="url(#SVGID_3_)" d="M69.032,21.988c0,0-0.349,0.012-0.779,0.012H49.786c-0.431,0-0.779-1.181-0.779-2.641V4.63
		c0-1.458,0.349-2.64,0.779-2.64h18.467c0.431,0,0.779,0,0.779,0v17.369V21.988L69.032,21.988z"/>
</g>
<path fill="#2AEDFF" d="M48,4.034c0-1.677,1.366-3.035,3.055-3.035h17.041v1H51.055c-1.13,0-2.048,0.914-2.048,2.035l0,0v15.931
	c0,1.121,0.918,2.035,2.048,2.035h17.041v1H51.055C49.366,23,48,21.641,48,19.965V4.034"/>
<linearGradient id="SVGID_4_" gradientUnits="userSpaceOnUse" x1="68.0957" y1="11.9949" x2="69.0322" y2="11.9949">
	<stop  offset="0" style="stop-color:#EEEBE8;stop-opacity:0"/>
	<stop  offset="1" style="stop-color:#EEEBE8"/>
</linearGradient>
<rect x="68.096" y="1.99" fill="url(#SVGID_4_)" width="0.937" height="20.01"/>
</svg>
