<?xml version="1.0" encoding="utf-8"?>
<!-- Generator: Adobe Illustrator 15.0.2, SVG Export Plug-In . SVG Version: 6.00 Build 0)  -->
<!DOCTYPE svg PUBLIC "-//W3C//DTD SVG 1.1//EN" "http://www.w3.org/Graphics/SVG/1.1/DTD/svg11.dtd">
<svg version="1.1" id="Calque_1" xmlns="http://www.w3.org/2000/svg" xmlns:xlink="http://www.w3.org/1999/xlink" x="0px" y="0px"
	 width="320px" height="36px" viewBox="0 0 320 36" enable-background="new 0 0 320 36" xml:space="preserve">
<g id="Effet_NoPatch">
</g>
<polygon fill="#D31147" points="80,0 150,0 158,36 88,36 "/>
<polygon fill="#F01B57" points="160,0 230,0 238,36 168,36 "/>
<linearGradient id="SVGID_1_" gradientUnits="userSpaceOnUse" x1="3095.1584" y1="3284.4365" x2="3095.1584" y2="3320.4365" gradientTransform="matrix(1 0 0 1 -3056.1582 -3284.4375)">
	<stop  offset="0" style="stop-color:#D31147"/>
	<stop  offset="1" style="stop-color:#F01B57"/>
</linearGradient>
<polygon fill="url(#SVGID_1_)" points="0,0 70,0 78,36 8,36 "/>
<path opacity="0.5" fill="#FFFFFE" enable-background="new    " d="M69.198,1l7.557,34H8.802L1.247,1H69.198 M70,0H0l8,36h70L70,0
	L70,0z"/>
<path opacity="0.5" fill="#FFFFFE" enable-background="new    " d="M149.198,1l7.557,34H88.802L81.247,1H149.198 M150,0H80l8,36h70
	L150,0L150,0z"/>
<path opacity="0.5" fill="#FFFFFE" enable-background="new    " d="M229.198,1l7.558,34h-67.951l-7.557-34H229.198 M230,0h-70l8,36
	h70L230,0L230,0z"/>
<linearGradient id="SVGID_2_" gradientUnits="userSpaceOnUse" x1="1731.3186" y1="2204.0391" x2="1731.3186" y2="2168.0391" gradientTransform="matrix(1 0 0 1 -1532.3184 -2168.0391)">
	<stop  offset="0" style="stop-color:#FFFFFF"/>
	<stop  offset="1" style="stop-color:#FFFFFF;stop-opacity:0"/>
</linearGradient>
<polygon fill="url(#SVGID_2_)" points="160,0 230,0 238,36 168,36 "/>
<polygon opacity="0.35" fill="#FFFFFE" enable-background="new    " points="80,0 150,0 158,36 88,36 "/>
</svg>
