<?xml version="1.0" encoding="utf-8"?>
<!-- Generator: Adobe Illustrator 15.0.0, SVG Export Plug-In . SVG Version: 6.00 Build 0)  -->
<!DOCTYPE svg PUBLIC "-//W3C//DTD SVG 1.1//EN" "http://www.w3.org/Graphics/SVG/1.1/DTD/svg11.dtd">
<svg version="1.1" id="Calque_1" xmlns="http://www.w3.org/2000/svg" xmlns:xlink="http://www.w3.org/1999/xlink" x="0px" y="0px"
	 width="48px" height="24px" viewBox="0 0 48 24" enable-background="new 0 0 48 24" xml:space="preserve">
<path opacity="0.6" fill="#E8C6B0" d="M48.001,1v22l-22,1c-1.101,0-2-0.924-2-2.053V2.052c0-1.128,0.899-2.052,2-2.052L48.001,1z"/>
<linearGradient id="SVGID_1_" gradientUnits="userSpaceOnUse" x1="764.8008" y1="1191.3809" x2="740.8008" y2="1191.3809" gradientTransform="matrix(-4.371139e-008 1 1 4.371139e-008 -1179.8802 -740.8004)">
	<stop  offset="0" style="stop-color:#E8C6B0"/>
	<stop  offset="1" style="stop-color:#EEEBE8"/>
</linearGradient>
<path fill="url(#SVGID_1_)" d="M2,24c-1.1,0-2-0.9-2-2V2c0-1.1,0.9-2,2-2h21v1v22v1H2z"/>
<path fill="#C0C0C0" d="M23,23L23,23H2c-0.552,0-1-0.447-1-1V2c0-0.552,0.448-1,1-1h21V23 M23,0H2C0.9,0,0,0.9,0,2v20
	c0,1.1,0.9,2,2,2h21V0z"/>
<linearGradient id="SVGID_2_" gradientUnits="userSpaceOnUse" x1="798.4209" y1="574.1377" x2="798.4209" y2="571.1377" gradientTransform="matrix(1 0 0 1 -761.9199 -570.1992)">
	<stop  offset="0" style="stop-color:#F01B57"/>
	<stop  offset="1" style="stop-color:#D31147"/>
</linearGradient>
<rect x="25.001" y="0.938" fill="url(#SVGID_2_)" width="23" height="3"/>
<path fill="#C0C0C0" d="M25.001,2c0-0.552,0.449-1,1-1h22v22h-22c-0.551,0-1-0.447-1-1V2 M24.001,2v20c0,1.1,0.899,2,2,2h22V0h-22
	C24.9,0,24.001,0.9,24.001,2L24.001,2z"/>
</svg>
