<?xml version="1.0" encoding="utf-8"?>
<!-- Generator: Adobe Illustrator 15.0.2, SVG Export Plug-In . SVG Version: 6.00 Build 0)  -->
<!DOCTYPE svg PUBLIC "-//W3C//DTD SVG 1.1//EN" "http://www.w3.org/Graphics/SVG/1.1/DTD/svg11.dtd">
<svg version="1.1" id="Calque_1" xmlns="http://www.w3.org/2000/svg" xmlns:xlink="http://www.w3.org/1999/xlink" x="0px" y="0px"
	 width="384px" height="45px" viewBox="0 0 384 45" enable-background="new 0 0 384 45" xml:space="preserve">
<rect x="0" fill="#FFFFFF" width="384" height="15"/>
<rect x="0" fill="#FFFFFF" width="16" height="15"/>
<rect x="80" fill="#FFFFFF" width="16" height="15"/>
<rect x="96" fill="#FFFFFF" width="16" height="15"/>
<rect x="176" fill="#FFFFFF" width="16" height="15"/>
<rect x="192" fill="#FFFFFF" width="16" height="15"/>
<rect x="272" fill="#FFFFFF" width="16" height="15"/>
<rect x="288" fill="#FFFFFF" width="16" height="15"/>
<rect x="368" fill="#FFFFFF" width="16" height="15"/>
<linearGradient id="SVGID_1_" gradientUnits="userSpaceOnUse" x1="64.0002" y1="3.25" x2="64.0002" y2="11.0362">
	<stop  offset="0" style="stop-color:#F01B57"/>
	<stop  offset="0.5" style="stop-color:#D31147"/>
	<stop  offset="1" style="stop-color:#F01B57"/>
</linearGradient>
<rect x="49" y="3.5" fill="url(#SVGID_1_)" width="30" height="8"/>
<linearGradient id="SVGID_2_" gradientUnits="userSpaceOnUse" x1="160.0002" y1="3.25" x2="160.0002" y2="11.0362">
	<stop  offset="0" style="stop-color:#F01B57"/>
	<stop  offset="0.5" style="stop-color:#D31147"/>
	<stop  offset="1" style="stop-color:#F01B57"/>
</linearGradient>
<rect x="145" y="3.5" fill="url(#SVGID_2_)" width="30" height="8"/>
<linearGradient id="SVGID_3_" gradientUnits="userSpaceOnUse" x1="256.0002" y1="3.25" x2="256.0002" y2="11.0362">
	<stop  offset="0" style="stop-color:#F01B57"/>
	<stop  offset="0.5" style="stop-color:#D31147"/>
	<stop  offset="1" style="stop-color:#F01B57"/>
</linearGradient>
<rect x="241" y="3.5" fill="url(#SVGID_3_)" width="30" height="8"/>
<linearGradient id="SVGID_4_" gradientUnits="userSpaceOnUse" x1="352.0002" y1="3.25" x2="352.0002" y2="11.0362">
	<stop  offset="0" style="stop-color:#F01B57"/>
	<stop  offset="0.5" style="stop-color:#D31147"/>
	<stop  offset="1" style="stop-color:#F01B57"/>
</linearGradient>
<rect x="337" y="3.5" fill="url(#SVGID_4_)" width="30" height="8"/>
</svg>
