<?xml version="1.0" encoding="utf-8"?>
<!-- Generator: Adobe Illustrator 15.0.0, SVG Export Plug-In . SVG Version: 6.00 Build 0)  -->
<!DOCTYPE svg PUBLIC "-//W3C//DTD SVG 1.1//EN" "http://www.w3.org/Graphics/SVG/1.1/DTD/svg11.dtd">
<svg version="1.1" id="Calque_1" xmlns="http://www.w3.org/2000/svg" xmlns:xlink="http://www.w3.org/1999/xlink" x="0px" y="0px"
	 width="36px" height="36px" viewBox="0 0 36 36" enable-background="new 0 0 36 36" xml:space="preserve">
<g>
	
		<linearGradient id="SVGID_1_" gradientUnits="userSpaceOnUse" x1="1202.4805" y1="1038.3779" x2="1202.4805" y2="1013.1445" gradientTransform="matrix(1 0 0 1 -1184.4805 -1007.7598)">
		<stop  offset="0" style="stop-color:#EEEBE8"/>
		<stop  offset="1" style="stop-color:#E8C6B0"/>
	</linearGradient>
	<path fill="url(#SVGID_1_)" d="M28.678,30.617H7.321c-1.07,0-1.937-0.871-1.937-1.941V7.318c0-1.067,0.867-1.934,1.937-1.934
		h21.356c1.068,0,1.939,0.867,1.939,1.934v21.357C30.617,29.746,29.746,30.617,28.678,30.617L28.678,30.617z"/>
	<path fill="#2AEDFF" d="M28.676,5C29.963,5,31,6.036,31,7.319v21.356C31,29.963,29.963,31,28.676,31H7.321
		C6.039,31,5,29.963,5,28.676V7.319C5,6.036,6.039,5,7.321,5H28.676 M28.676,5.766H7.321c-0.856,0-1.556,0.697-1.556,1.554v21.356
		c0,0.863,0.699,1.559,1.556,1.559h21.354c0.863,0,1.56-0.694,1.56-1.559V7.319C30.234,6.463,29.539,5.766,28.676,5.766
		L28.676,5.766z"/>
</g>
<polygon fill="#808090" points="13.45,10.998 13.45,24.998 24.551,17.998 "/>
</svg>
