<?xml version="1.0" encoding="utf-8"?>
<!-- Generator: Adobe Illustrator 15.0.0, SVG Export Plug-In . SVG Version: 6.00 Build 0)  -->
<!DOCTYPE svg PUBLIC "-//W3C//DTD SVG 1.1//EN" "http://www.w3.org/Graphics/SVG/1.1/DTD/svg11.dtd">
<svg version="1.1" id="Calque_1" xmlns="http://www.w3.org/2000/svg" xmlns:xlink="http://www.w3.org/1999/xlink" x="0px" y="0px"
	 width="80px" height="80px" viewBox="0 0 80 80" enable-background="new 0 0 80 80" xml:space="preserve">
<g>
	<g>
		<path fill="#FFFBFF" d="M16.234,21.255l9.764,27.571l9.71-27.571h10.287v38.013h-7.858V48.877l0.783-17.936L28.659,59.269h-5.378
			L13.049,30.967l0.783,17.91v10.392H6V21.255H16.234z"/>
	</g>
	<g>
		<path fill="#FFFBFF" d="M74,59.269H51.261v-1.41l12.453-14.36c1.184-1.354,2.201-2.618,3.054-3.785
			c0.853-1.166,1.558-2.258,2.116-3.277c0.555-1.018,0.969-1.979,1.239-2.885c0.271-0.906,0.405-1.774,0.405-2.611
			c0-1.34-0.197-2.554-0.59-3.643c-0.392-1.087-0.979-2.013-1.761-2.78c-0.784-0.766-1.756-1.353-2.912-1.763
			c-1.155-0.408-2.493-0.613-4.007-0.613c-1.358,0-2.62,0.248-3.786,0.743c-1.166,0.495-2.176,1.184-3.029,2.062
			c-0.853,0.879-1.518,1.919-1.996,3.12c-0.479,1.203-0.718,2.507-0.718,3.916h-1.412c0-1.531,0.266-2.98,0.796-4.347
			c0.532-1.367,1.28-2.563,2.246-3.589s2.119-1.836,3.459-2.428c1.34-0.593,2.819-0.887,4.438-0.887
			c1.636,0,3.111,0.217,4.425,0.651c1.315,0.437,2.436,1.084,3.369,1.946c0.93,0.862,1.647,1.927,2.152,3.197
			c0.504,1.272,0.759,2.742,0.759,4.414c0,1.183-0.227,2.367-0.68,3.55c-0.452,1.185-1.049,2.369-1.788,3.551
			c-0.74,1.185-1.58,2.359-2.521,3.525c-0.938,1.166-1.889,2.315-2.846,3.445L53.113,57.858H74V59.269z"/>
	</g>
</g>
</svg>
